<svg xmlns="http://www.w3.org/2000/svg" width="34" height="27" viewBox="0 0 34 27">
    <g fill="none" fill-rule="evenodd">
        <g stroke="#FFF">
            <g>
                <path stroke-width="2" d="M32 1c.276 0 .525.113.706.293.18.18.294.429.294.702h0v17.01c0 .274-.113.522-.293.701-.18.18-.428.294-.7.294h0-21.414c-1.274 0-3.156.592-4.203 1.323h0l-5.324 3.714L1 2.007c0-.279.112-.531.294-.714C1.474 1.112 1.724 1 2 1h0z" transform="translate(-283 -502) translate(283 502)"/>
                <path stroke-linecap="round" d="M7.5 6.5L27.525 6.5M7.5 10.5L27.525 10.5M7.5 14.5L21.5 14.5" transform="translate(-283 -502) translate(283 502)"/>
            </g>
        </g>
    </g>
</svg>
